<svg width="280" height="280" viewBox="0 0 280 280" fill="none" xmlns="http://www.w3.org/2000/svg">
<path d="M89.5 0H0L80.5586 127L125.084 63L89.5 0Z" fill="url(#paint0_linear_3314_5)"/>
<path d="M189 280H280L199.853 151.5L154.869 219L189 280Z" fill="url(#paint1_linear_3314_5)"/>
<path d="M67.5 180.5L0 280H72.5L105.581 181.847L67.5 180.5Z" fill="url(#paint2_linear_3314_5)"/>
<path d="M130.5 160.5L89.5 280L198.697 119.5H173.349H148L189 0L80.6625 160.5H130.5Z" fill="url(#paint3_linear_3314_5)"/>
<path d="M280 0H207L173.349 100H212L280 0Z" fill="url(#paint4_linear_3314_5)"/>
<defs>
<linearGradient id="paint0_linear_3314_5" x1="0" y1="280" x2="280" y2="0" gradientUnits="userSpaceOnUse">
<stop stop-color="#8B42D9"/>
<stop offset="1" stop-color="white"/>
</linearGradient>
<linearGradient id="paint1_linear_3314_5" x1="0" y1="280" x2="280" y2="0" gradientUnits="userSpaceOnUse">
<stop stop-color="#8B42D9"/>
<stop offset="1" stop-color="white"/>
</linearGradient>
<linearGradient id="paint2_linear_3314_5" x1="0" y1="280" x2="280" y2="0" gradientUnits="userSpaceOnUse">
<stop stop-color="#8B42D9"/>
<stop offset="1" stop-color="white"/>
</linearGradient>
<linearGradient id="paint3_linear_3314_5" x1="0" y1="280" x2="280" y2="0" gradientUnits="userSpaceOnUse">
<stop stop-color="#8B42D9"/>
<stop offset="1" stop-color="white"/>
</linearGradient>
<linearGradient id="paint4_linear_3314_5" x1="0" y1="280" x2="280" y2="0" gradientUnits="userSpaceOnUse">
<stop stop-color="#8B42D9"/>
<stop offset="1" stop-color="white"/>
</linearGradient>
</defs>
</svg>
